<svg xmlns="http://www.w3.org/2000/svg" version="1.1" xmlns:xlink="http://www.w3.org/1999/xlink" xmlns:svgjs="http://svgjs.dev/svgjs" width="1000" height="272" viewBox="0 0 1000 272"><g transform="matrix(1,0,0,1,-0.6060606060606233,-0.2299510011060022)"><svg viewBox="0 0 396 108" data-background-color="#ffffff" preserveAspectRatio="xMidYMid meet" height="272" width="1000" xmlns="http://www.w3.org/2000/svg" xmlns:xlink="http://www.w3.org/1999/xlink"><defs></defs><g id="tight-bounds" transform="matrix(1,0,0,1,0.2400000000000091,0.09130407396855844)"><svg viewBox="0 0 395.52 107.81739185206288" height="107.81739185206288" width="395.52"><g><svg viewBox="0 0 579.1466423277876 157.873383079646" height="107.81739185206288" width="395.52"><g transform="matrix(1,0,0,1,183.6266423277876,57.118921628318574)"><svg viewBox="0 0 395.52 43.63553982300885" height="43.63553982300885" width="395.52"><g><svg viewBox="0 0 395.52 43.63553982300885" height="43.63553982300885" width="395.52"><g><svg viewBox="0 0 395.52 43.63553982300885" height="43.63553982300885" width="395.52"><g transform="matrix(1,0,0,1,0,0)"><svg width="395.52" viewBox="2.8499999046325684 -37.099998474121094 338.9700012207031 37.39999771118164" height="43.63553982300885" data-palette-color="#ffffff"><path d="M6.7 0L2.85 0 7.05-36.8 11.1-36.8 20.9-5 30.5-36.8 34.6-36.8 38.9 0 35.05 0 31.35-32.25 32-32.15 22.7 0 19.05 0 9.5-32.1 10.25-32.2 6.7 0ZM52.4 0.2L52.4 0.2Q51.2 0.2 49.85-0.03 48.5-0.25 47.3-0.95 46.1-1.65 45.35-3.08 44.6-4.5 44.6-6.95L44.6-6.95 44.6-29.4Q44.6-31.55 45.22-32.98 45.85-34.4 46.9-35.23 47.95-36.05 49.25-36.43 50.55-36.8 51.85-36.8L51.85-36.8Q54.95-36.75 57.6-36.68 60.25-36.6 62.62-36.52 65-36.45 67.25-36.35L67.25-36.35 67.25-33.15 52.85-33.15Q50.9-33.15 49.75-32.1 48.6-31.05 48.6-28.75L48.6-28.75 48.6-20.05 65.05-19.8 65.05-16.75 48.6-16.5 48.6-7.85Q48.6-6 49.22-5.05 49.85-4.1 50.9-3.8 51.95-3.5 53.05-3.5L53.05-3.5 67.25-3.5 67.25-0.3Q64.95-0.15 62.42-0.05 59.9 0.05 57.37 0.1 54.85 0.15 52.4 0.2ZM75.89 0L71.8 0 84.39-36.8 89.5-36.8 102.09 0 98 0 94.3-10.5 79.5-10.5 75.89 0ZM86.94-33.3L80.5-14.1 93.3-14.1 86.94-33.3ZM129.09 0L115.04 0Q112.89 0 111.22-0.68 109.54-1.35 108.59-2.98 107.64-4.6 107.64-7.4L107.64-7.4 107.64-36.8 111.64-36.8 111.64-7.95Q111.64-6.15 112.24-5.23 112.84-4.3 113.84-3.98 114.84-3.65 115.89-3.65L115.89-3.65 129.09-3.65 129.09 0ZM144.69 0.3L144.69 0.3Q143.59 0.3 142.07 0.23 140.54 0.15 138.94 0.03 137.34-0.1 135.92-0.25 134.49-0.4 133.54-0.6L133.54-0.6 133.54-3.65Q134.79-3.55 136.59-3.45 138.39-3.35 140.47-3.3 142.54-3.25 144.54-3.25L144.54-3.25Q146.79-3.25 148.59-3.7 150.39-4.15 151.47-5.35 152.54-6.55 152.54-8.8L152.54-8.8 152.54-11.3Q152.54-13.85 151.24-15.18 149.94-16.5 147.04-16.5L147.04-16.5 143.09-16.5Q138.54-16.5 135.97-18.5 133.39-20.5 133.39-25.4L133.39-25.4 133.39-27.5Q133.39-32.7 136.19-34.9 138.99-37.1 144.09-37.1L144.09-37.1Q145.69-37.1 147.69-36.93 149.69-36.75 151.57-36.52 153.44-36.3 154.69-36.05L154.69-36.05 154.69-33Q152.49-33.2 149.72-33.35 146.94-33.5 144.49-33.5L144.49-33.5Q142.24-33.5 140.59-32.98 138.94-32.45 138.07-31.13 137.19-29.8 137.19-27.35L137.19-27.35 137.19-25.65Q137.19-22.6 138.79-21.45 140.39-20.3 143.24-20.3L143.24-20.3 147.49-20.3Q150.54-20.3 152.49-19.2 154.44-18.1 155.39-16.18 156.34-14.25 156.34-11.75L156.34-11.75 156.34-8.9Q156.34-5.2 154.77-3.2 153.19-1.2 150.57-0.45 147.94 0.3 144.69 0.3ZM200.04 0L175.49 0 175.49-3.25 189.09-16.3Q191.19-18.25 192.41-19.95 193.64-21.65 194.19-23.38 194.74-25.1 194.74-27.15L194.74-27.15Q194.74-28.95 194.06-30.35 193.39-31.75 191.69-32.55 189.99-33.35 186.79-33.35L186.79-33.35 176.79-33.35 176.79-36.4Q179.09-36.65 181.86-36.88 184.64-37.1 187.64-37.1L187.64-37.1Q191.84-37.1 194.26-35.9 196.69-34.7 197.69-32.58 198.69-30.45 198.69-27.6L198.69-27.6Q198.69-25.05 198.01-22.9 197.34-20.75 195.89-18.7 194.44-16.65 192.14-14.45L192.14-14.45 180.89-3.65 200.04-3.65 200.04 0ZM231.83 0.3L231.83 0.3Q228.53 0.3 226.08-0.45 223.63-1.2 222.03-3.18 220.43-5.15 219.66-8.85 218.88-12.55 218.88-18.5L218.88-18.5Q218.88-24.1 219.68-27.73 220.48-31.35 222.11-33.4 223.73-35.45 226.23-36.27 228.73-37.1 232.13-37.1L232.13-37.1Q233.68-37.1 235.58-36.9 237.48-36.7 239.33-36.43 241.18-36.15 242.68-35.75L242.68-35.75 242.68-32.8Q241.83-32.95 240.28-33.1 238.73-33.25 236.76-33.38 234.78-33.5 232.73-33.5L232.73-33.5Q230.08-33.5 228.18-32.9 226.28-32.3 225.11-30.68 223.93-29.05 223.38-26.1 222.83-23.15 222.83-18.45L222.83-18.45Q222.83-13.7 223.36-10.68 223.88-7.65 225.03-6.05 226.18-4.45 228.03-3.85 229.88-3.25 232.63-3.25L232.63-3.25Q236.38-3.25 238.78-3.45 241.18-3.65 242.68-3.9L242.68-3.9 242.68-0.9Q241.18-0.55 239.36-0.28 237.53 0 235.61 0.15 233.68 0.3 231.83 0.3ZM261.63 0.3L261.63 0.3Q258.08 0.3 255.4-0.38 252.73-1.05 250.95-2.95 249.18-4.85 248.3-8.55 247.43-12.25 247.43-18.25L247.43-18.25Q247.43-24.25 248.33-27.98 249.23-31.7 251.03-33.68 252.83-35.65 255.48-36.38 258.13-37.1 261.63-37.1L261.63-37.1Q265.23-37.1 267.9-36.38 270.58-35.65 272.35-33.68 274.13-31.7 274.98-27.98 275.83-24.25 275.83-18.25L275.83-18.25Q275.83-12.25 274.95-8.55 274.08-4.85 272.3-2.95 270.53-1.05 267.88-0.38 265.23 0.3 261.63 0.3ZM261.63-3.25L261.63-3.25Q264.43-3.25 266.38-3.8 268.33-4.35 269.55-5.93 270.78-7.5 271.33-10.45 271.88-13.4 271.88-18.25L271.88-18.25Q271.88-23.3 271.3-26.35 270.73-29.4 269.5-30.95 268.28-32.5 266.35-33 264.43-33.5 261.63-33.5L261.63-33.5Q259.03-33.5 257.1-33 255.18-32.5 253.9-30.95 252.63-29.4 252-26.35 251.38-23.3 251.38-18.25L251.38-18.25Q251.38-13.4 251.9-10.45 252.43-7.5 253.63-5.93 254.83-4.35 256.8-3.8 258.78-3.25 261.63-3.25ZM295.93 0.3L295.93 0.3Q292.38 0.3 289.7-0.38 287.03-1.05 285.25-2.95 283.48-4.85 282.6-8.55 281.73-12.25 281.73-18.25L281.73-18.25Q281.73-24.25 282.63-27.98 283.53-31.7 285.33-33.68 287.13-35.65 289.78-36.38 292.43-37.1 295.93-37.1L295.93-37.1Q299.53-37.1 302.2-36.38 304.88-35.65 306.65-33.68 308.43-31.7 309.28-27.98 310.13-24.25 310.13-18.25L310.13-18.25Q310.13-12.25 309.25-8.55 308.38-4.85 306.6-2.95 304.83-1.05 302.18-0.38 299.53 0.3 295.93 0.3ZM295.93-3.25L295.93-3.25Q298.73-3.25 300.68-3.8 302.63-4.35 303.85-5.93 305.08-7.5 305.63-10.45 306.18-13.4 306.18-18.25L306.18-18.25Q306.18-23.3 305.6-26.35 305.03-29.4 303.8-30.95 302.58-32.5 300.65-33 298.73-33.5 295.93-33.5L295.93-33.5Q293.33-33.5 291.4-33 289.48-32.5 288.2-30.95 286.93-29.4 286.3-26.35 285.68-23.3 285.68-18.25L285.68-18.25Q285.68-13.4 286.2-10.45 286.73-7.5 287.93-5.93 289.13-4.35 291.1-3.8 293.08-3.25 295.93-3.25ZM320.92 0L316.92 0 316.92-36.8 320.92-36.8 320.92-20.15 327.37-20.15 337.47-36.8 341.67-36.8 330.52-18.4 341.82 0 337.57 0 327.37-16.55 320.92-16.55 320.92 0Z" opacity="1" transform="matrix(1,0,0,1,0,0)" fill="#ffffff" class="undefined-text-0" data-fill-palette-color="primary" id="text-0"></path></svg></g></svg></g></svg></g></svg></g><g><svg viewBox="0 0 157.873383079646 157.873383079646" height="157.873383079646" width="157.873383079646"><g><svg viewBox="0 0 157.873383079646 157.873383079646" height="157.873383079646" width="157.873383079646"><g transform="matrix(1,0,0,1,41.7263474530191,56.02301222489627)"><svg viewBox="0 0 74.4206881736078 45.827358629853464" height="45.827358629853464" width="74.4206881736078"><g><svg xmlns="http://www.w3.org/2000/svg" xmlns:xlink="http://www.w3.org/1999/xlink" version="1.0" x="0" y="0" viewBox="17.66650390625 34 63.33349609375 39" enable-background="new 0 0 100 100" xml:space="preserve" height="45.827358629853464" width="74.4206881736078" class="icon-x-0" data-fill-palette-color="accent" id="x-0"><g fill="#ffffff" data-fill-palette-color="accent"><g fill="#ffffff" data-fill-palette-color="accent"><path d="M64.365 34c-3.728 0-6.2 5.296-6.2 8.8 0 3.306 2.095 5.702 5.2 6.126V71.5c0 0.552 0.448 1 1 1s1-0.448 1-1V48.926c3.106-0.424 5.2-2.82 5.2-6.126C70.565 39.296 68.092 34 64.365 34zM64.365 47c-2.552 0-4.2-1.648-4.2-4.2 0-2.906 2.077-6.8 4.2-6.8s4.2 3.894 4.2 6.8C68.565 45.352 66.917 47 64.365 47z" fill="#ffffff" data-fill-palette-color="accent"></path><path d="M75 35c-0.552 0-1 0.448-1 1v36c0 0.552 0.448 1 1 1s1-0.448 1-1V36C76 35.448 75.552 35 75 35z" fill="#ffffff" data-fill-palette-color="accent"></path><path d="M80 35c-0.552 0-1 0.448-1 1v36c0 0.552 0.448 1 1 1s1-0.448 1-1V36C81 35.448 80.552 35 80 35z" fill="#ffffff" data-fill-palette-color="accent"></path><path d="M36.667 34.333c-10.477 0-19 8.523-19 19s8.523 19 19 19 19-8.523 19-19S47.143 34.333 36.667 34.333zM36.667 70.333c-9.374 0-17-7.626-17-17 0-9.374 7.626-17 17-17s17 7.626 17 17C53.667 62.707 46.041 70.333 36.667 70.333z" fill="#ffffff" data-fill-palette-color="accent"></path><circle cx="31" cy="49" r="1.0" fill="#ffffff" data-fill-palette-color="accent"></circle><circle cx="25" cy="49" r="1.0" fill="#ffffff" data-fill-palette-color="accent"></circle><circle cx="28" cy="45" r="1.0" fill="#ffffff" data-fill-palette-color="accent"></circle><circle cx="37" cy="49" r="1.0" fill="#ffffff" data-fill-palette-color="accent"></circle><circle cx="34" cy="45" r="1.0" fill="#ffffff" data-fill-palette-color="accent"></circle><circle cx="43" cy="49" r="1.0" fill="#ffffff" data-fill-palette-color="accent"></circle><circle cx="40" cy="45" r="1.0" fill="#ffffff" data-fill-palette-color="accent"></circle><circle cx="49" cy="49" r="1.0" fill="#ffffff" data-fill-palette-color="accent"></circle><circle cx="46" cy="45" r="1.0" fill="#ffffff" data-fill-palette-color="accent"></circle><circle cx="31" cy="41" r="1.0" fill="#ffffff" data-fill-palette-color="accent"></circle><circle cx="37" cy="41" r="1.0" fill="#ffffff" data-fill-palette-color="accent"></circle><circle cx="43" cy="41" r="1.0" fill="#ffffff" data-fill-palette-color="accent"></circle><circle cx="28" cy="53" r="1.0" fill="#ffffff" data-fill-palette-color="accent"></circle><circle cx="34" cy="53" r="1.0" fill="#ffffff" data-fill-palette-color="accent"></circle><circle cx="40" cy="53" r="1.0" fill="#ffffff" data-fill-palette-color="accent"></circle><circle cx="46" cy="53" r="1.0" fill="#ffffff" data-fill-palette-color="accent"></circle><circle cx="31" cy="57" r="1.0" fill="#ffffff" data-fill-palette-color="accent"></circle><circle cx="25" cy="57" r="1.0" fill="#ffffff" data-fill-palette-color="accent"></circle><circle cx="37" cy="57" r="1.0" fill="#ffffff" data-fill-palette-color="accent"></circle><circle cx="43" cy="57" r="1.0" fill="#ffffff" data-fill-palette-color="accent"></circle><circle cx="49" cy="57" r="1.0" fill="#ffffff" data-fill-palette-color="accent"></circle><circle cx="28" cy="61" r="1.0" fill="#ffffff" data-fill-palette-color="accent"></circle><circle cx="34" cy="61" r="1.0" fill="#ffffff" data-fill-palette-color="accent"></circle><circle cx="40" cy="61" r="1.0" fill="#ffffff" data-fill-palette-color="accent"></circle><circle cx="46" cy="61" r="1.0" fill="#ffffff" data-fill-palette-color="accent"></circle><circle cx="31" cy="65" r="1.0" fill="#ffffff" data-fill-palette-color="accent"></circle><circle cx="37" cy="65" r="1.0" fill="#ffffff" data-fill-palette-color="accent"></circle><circle cx="43" cy="65" r="1.0" fill="#ffffff" data-fill-palette-color="accent"></circle></g></g></svg></g></svg></g><path d="M13.767 61.077l-0.445 1.243-11.406-5.615 0.469-1.309 11.405 0.516-9.159-6.787 0.472-1.318 12.391 2.866-0.445 1.243-10.852-2.538 0.112-0.193 9.31 6.723-0.422 1.177-11.482-0.628 0.06-0.255zM22.755 42.126v0c-0.153 0.226-0.34 0.454-0.56 0.684-0.216 0.224-0.467 0.404-0.753 0.541-0.286 0.137-0.612 0.185-0.98 0.145-0.362-0.036-0.778-0.213-1.247-0.53v0l-6.377-4.317c-0.409-0.277-0.707-0.567-0.896-0.872-0.192-0.299-0.298-0.6-0.318-0.903-0.02-0.303 0.018-0.604 0.115-0.901 0.093-0.292 0.223-0.562 0.391-0.81v0c0.407-0.578 0.786-1.114 1.137-1.609 0.357-0.491 0.694-0.96 1.012-1.405 0.319-0.436 0.631-0.861 0.935-1.275v0l0.911 0.617-2.769 4.091c-0.25 0.37-0.349 0.73-0.296 1.08 0.049 0.355 0.292 0.681 0.728 0.976v0l2.476 1.676 3.234-4.634 0.87 0.588-3.093 4.73 2.46 1.665c0.348 0.235 0.654 0.354 0.918 0.356 0.255 0.004 0.48-0.073 0.676-0.231 0.19-0.161 0.356-0.347 0.497-0.557v0l2.731-4.033 0.911 0.617c-0.264 0.449-0.55 0.92-0.859 1.411-0.303 0.495-0.613 0.982-0.929 1.461-0.314 0.488-0.623 0.967-0.925 1.439zM31.325 31.768l-1.052 0.939-5.177-12.309 1.306-1.165 11.633 6.55-1.045 0.932-3.345-1.842-3.791 3.382zM26.544 20.714l2.738 6.39 3.276-2.923zM50.724 18.23l-4.231 2.311c-0.433 0.236-0.853 0.378-1.26 0.426-0.413 0.051-0.802-0.037-1.168-0.263-0.372-0.222-0.711-0.614-1.019-1.176v0l-4.836-8.857 1.203-0.656 4.745 8.69c0.198 0.363 0.41 0.604 0.635 0.724 0.222 0.114 0.452 0.152 0.689 0.114 0.234-0.044 0.457-0.124 0.667-0.239v0l3.976-2.171zM61.081 14.805v0c-0.243 0.07-0.534 0.146-0.87 0.229-0.345 0.078-0.698 0.155-1.058 0.232-0.353 0.074-0.693 0.137-1.018 0.188-0.323 0.058-0.597 0.095-0.821 0.111v0l-0.287-0.999c0.281-0.06 0.624-0.134 1.028-0.223 0.403-0.095 0.834-0.201 1.293-0.32 0.457-0.124 0.906-0.25 1.348-0.377v0c0.493-0.142 0.925-0.318 1.295-0.528 0.363-0.208 0.625-0.481 0.784-0.819 0.162-0.331 0.171-0.743 0.03-1.236v0l-0.238-0.827c-0.16-0.557-0.424-0.943-0.791-1.157-0.371-0.205-0.877-0.216-1.518-0.032v0l-1.297 0.373c-1 0.287-1.848 0.292-2.546 0.014-0.691-0.28-1.191-0.958-1.501-2.035v0l-0.198-0.692c-0.328-1.141-0.254-2.043 0.22-2.706 0.477-0.657 1.276-1.147 2.398-1.47v0c0.352-0.101 0.755-0.196 1.208-0.285 0.447-0.087 0.885-0.168 1.315-0.243 0.425-0.067 0.783-0.111 1.075-0.132v0l0.288 1c-0.498 0.102-1.057 0.221-1.677 0.357-0.618 0.143-1.196 0.292-1.735 0.446v0c-0.493 0.142-0.906 0.323-1.238 0.544-0.332 0.22-0.552 0.506-0.659 0.855-0.109 0.344-0.087 0.785 0.068 1.323v0l0.163 0.567c0.192 0.666 0.5 1.077 0.927 1.232 0.424 0.149 0.95 0.133 1.578-0.048v0l1.403-0.403c0.673-0.193 1.256-0.229 1.749-0.107 0.499 0.12 0.916 0.361 1.248 0.723 0.333 0.362 0.579 0.819 0.738 1.37v0l0.27 0.942c0.234 0.814 0.241 1.488 0.02 2.023-0.219 0.542-0.596 0.98-1.131 1.314-0.531 0.326-1.152 0.591-1.863 0.796zM91.126 13.26l-8.375-0.881 0.117-1.114 5.103-3.959c0.524-0.394 0.949-0.772 1.276-1.132 0.319-0.355 0.559-0.722 0.719-1.101 0.167-0.378 0.276-0.802 0.325-1.274v0c0.043-0.411 0.005-0.784-0.113-1.118-0.119-0.334-0.361-0.611-0.728-0.83-0.372-0.227-0.922-0.379-1.651-0.456v0l-3.412-0.359 0.109-1.034c0.53-0.005 1.113 0 1.748 0.013 0.641 0.021 1.304 0.067 1.987 0.138v0c0.955 0.1 1.693 0.316 2.215 0.646 0.522 0.33 0.873 0.749 1.054 1.257 0.175 0.508 0.228 1.087 0.16 1.737v0c-0.061 0.577-0.193 1.103-0.398 1.577-0.204 0.475-0.496 0.927-0.877 1.356-0.381 0.436-0.86 0.875-1.435 1.317v0l-4.228 3.286 6.535 0.688zM111.914 21.004v0c-0.671-0.356-1.215-0.74-1.631-1.149-0.413-0.416-0.676-0.91-0.787-1.482-0.111-0.572-0.045-1.273 0.199-2.103 0.238-0.832 0.676-1.849 1.314-3.05v0c0.6-1.131 1.178-2.02 1.734-2.669 0.547-0.646 1.094-1.087 1.643-1.325 0.552-0.243 1.122-0.314 1.71-0.213 0.594 0.104 1.235 0.339 1.924 0.705v0c0.312 0.166 0.649 0.371 1.01 0.615 0.37 0.242 0.725 0.49 1.064 0.747 0.349 0.253 0.651 0.501 0.908 0.742v0l-0.474 0.892c-0.155-0.12-0.381-0.278-0.677-0.473-0.296-0.195-0.639-0.411-1.027-0.647-0.385-0.242-0.783-0.473-1.195-0.691v0c-0.536-0.285-1.031-0.468-1.486-0.551-0.445-0.085-0.873-0.026-1.284 0.179-0.411 0.205-0.83 0.575-1.257 1.11-0.428 0.535-0.895 1.28-1.401 2.234v0c-0.51 0.96-0.874 1.774-1.094 2.443-0.216 0.663-0.295 1.217-0.237 1.663 0.064 0.449 0.248 0.834 0.553 1.155 0.314 0.318 0.748 0.624 1.302 0.917v0c0.76 0.403 1.39 0.716 1.892 0.937 0.511 0.218 0.93 0.381 1.259 0.487v0l-0.483 0.91c-0.338-0.089-0.708-0.202-1.111-0.341-0.399-0.144-0.801-0.304-1.205-0.481-0.404-0.177-0.792-0.364-1.163-0.561zM124.569 30.176v0c-0.609-0.539-1.093-1.069-1.451-1.59-0.358-0.521-0.546-1.079-0.563-1.673-0.018-0.594 0.179-1.275 0.591-2.041 0.411-0.767 1.072-1.665 1.981-2.694v0c0.91-1.029 1.725-1.794 2.446-2.297 0.72-0.502 1.385-0.786 1.995-0.852 0.61-0.066 1.195 0.042 1.756 0.325 0.56 0.273 1.142 0.676 1.746 1.211v0c0.614 0.543 1.096 1.081 1.445 1.612 0.353 0.526 0.532 1.094 0.537 1.703 0.004 0.609-0.204 1.297-0.625 2.064-0.421 0.767-1.086 1.665-1.995 2.695v0c-0.91 1.029-1.72 1.794-2.432 2.295-0.711 0.502-1.362 0.78-1.954 0.836-0.592 0.055-1.166-0.061-1.721-0.348-0.556-0.287-1.141-0.702-1.756-1.246zM125.378 29.262v0c0.479 0.424 0.926 0.739 1.34 0.945 0.419 0.201 0.852 0.26 1.3 0.176 0.448-0.084 0.945-0.339 1.491-0.765 0.536-0.425 1.171-1.052 1.904-1.881v0c0.769-0.869 1.335-1.605 1.699-2.208 0.364-0.613 0.558-1.144 0.583-1.595 0.024-0.45-0.089-0.866-0.339-1.247-0.255-0.376-0.622-0.777-1.101-1.201v0c-0.449-0.398-0.877-0.7-1.281-0.906-0.409-0.202-0.841-0.267-1.295-0.197-0.449 0.075-0.96 0.326-1.533 0.753-0.564 0.427-1.231 1.074-2 1.943v0c-0.733 0.829-1.278 1.536-1.634 2.12-0.361 0.589-0.558 1.109-0.592 1.559-0.034 0.451 0.077 0.874 0.333 1.27 0.26 0.39 0.635 0.802 1.125 1.234zM135.636 43.176v0c-0.455-0.674-0.791-1.308-1.007-1.902-0.216-0.594-0.259-1.181-0.127-1.761 0.132-0.58 0.492-1.189 1.082-1.829 0.59-0.64 1.454-1.344 2.592-2.112v0c1.138-0.769 2.119-1.306 2.941-1.613 0.823-0.306 1.538-0.415 2.145-0.326 0.607 0.089 1.147 0.34 1.619 0.753 0.474 0.404 0.937 0.94 1.389 1.609v0c0.459 0.68 0.791 1.32 0.996 1.922 0.211 0.598 0.242 1.192 0.094 1.783-0.148 0.591-0.522 1.205-1.121 1.843-0.599 0.638-1.468 1.341-2.606 2.11v0c-1.138 0.769-2.114 1.307-2.928 1.615-0.814 0.308-1.514 0.415-2.1 0.321-0.587-0.094-1.114-0.35-1.581-0.768-0.467-0.417-0.929-0.965-1.388-1.645zM136.647 42.494v0c0.358 0.53 0.712 0.947 1.062 1.25 0.355 0.299 0.76 0.464 1.215 0.495 0.455 0.031 1-0.092 1.634-0.368 0.625-0.277 1.396-0.726 2.314-1.345v0c0.961-0.649 1.694-1.22 2.198-1.714 0.506-0.502 0.826-0.968 0.962-1.398 0.136-0.43 0.131-0.861-0.016-1.293-0.152-0.428-0.408-0.907-0.766-1.438v0c-0.336-0.497-0.674-0.897-1.014-1.197-0.346-0.298-0.747-0.469-1.204-0.515-0.453-0.04-1.011 0.075-1.673 0.346-0.653 0.272-1.46 0.733-2.422 1.382v0c-0.917 0.619-1.621 1.167-2.112 1.644-0.496 0.48-0.817 0.934-0.963 1.362-0.145 0.428-0.144 0.865 0.005 1.312 0.154 0.443 0.414 0.935 0.78 1.477zM142.162 55.509l-0.47-1.287 11.866-4.331 0.47 1.287-5.364 1.958 0.761 2.086 6.551 1.293 0.497 1.362-7.251-1.431-4.598 5.809-0.501-1.372 4.137-5.236-0.761-2.086zM5.115 103.146l-0.45-1.252 12.473-2.936 0.473 1.318-9.209 6.908 11.476-0.592 0.48 1.337-11.479 5.703-0.453-1.261 10.072-4.976 0.041 0.23-11.556 0.727-0.426-1.186 9.334-6.857 0.125 0.231zM15.054 124.258v0c-0.157-0.232-0.3-0.49-0.427-0.773-0.132-0.289-0.208-0.592-0.229-0.908-0.025-0.322 0.049-0.646 0.222-0.973 0.179-0.331 0.5-0.653 0.963-0.967v0l6.432-4.362c0.408-0.277 0.792-0.448 1.15-0.513 0.349-0.067 0.673-0.053 0.971 0.042 0.289 0.094 0.554 0.241 0.794 0.44 0.24 0.2 0.444 0.424 0.613 0.672v0c0.389 0.598 0.751 1.155 1.084 1.67 0.328 0.519 0.637 1.01 0.927 1.474 0.296 0.46 0.579 0.913 0.848 1.358v0l-0.91 0.617-2.796-4.122c-0.254-0.375-0.559-0.604-0.912-0.686-0.345-0.081-0.735 0.027-1.171 0.323v0l-2.491 1.689 3.119 4.761-0.877 0.595-3.261-4.665-2.475 1.678c-0.353 0.239-0.582 0.479-0.685 0.718-0.1 0.245-0.113 0.487-0.038 0.727 0.08 0.236 0.19 0.459 0.332 0.669v0l2.762 4.072-0.919 0.623c-0.327-0.423-0.661-0.869-1.003-1.337-0.351-0.471-0.693-0.944-1.024-1.42-0.337-0.473-0.669-0.94-0.999-1.402zM25.233 136.227l-1.061-0.944 11.724-6.608 1.315 1.17-5.211 12.408-1.061-0.944 1.459-3.563-3.824-3.405zM35.748 130.164l-6.082 3.476 3.309 2.946zM46.406 150.988l-4.268-2.326c-0.433-0.236-0.783-0.514-1.049-0.834-0.263-0.326-0.402-0.705-0.417-1.138-0.015-0.433 0.133-0.934 0.443-1.501v0l4.867-8.931 1.221 0.665-4.777 8.764c-0.198 0.363-0.289 0.67-0.274 0.921 0.021 0.254 0.116 0.47 0.286 0.646 0.161 0.179 0.349 0.327 0.566 0.445v0l4.005 2.182zM58.538 155.343v0c-0.244-0.07-0.533-0.16-0.869-0.27-0.334-0.117-0.674-0.238-1.019-0.365-0.352-0.129-0.679-0.257-0.982-0.386-0.305-0.122-0.557-0.236-0.755-0.341v0l0.29-1.01c0.27 0.098 0.6 0.217 0.99 0.357 0.398 0.135 0.826 0.275 1.284 0.42 0.451 0.143 0.898 0.278 1.34 0.406v0c0.5 0.143 0.966 0.222 1.4 0.235 0.427 0.011 0.796-0.08 1.109-0.275 0.314-0.201 0.542-0.548 0.684-1.042v0l0.24-0.837c0.162-0.564 0.141-1.035-0.064-1.412-0.204-0.378-0.626-0.658-1.267-0.842v0l-1.317-0.378c-1.006-0.289-1.731-0.736-2.174-1.341-0.444-0.606-0.509-1.454-0.197-2.543v0l0.199-0.693c0.331-1.154 0.877-1.885 1.638-2.193 0.755-0.311 1.7-0.303 2.834 0.022v0c0.352 0.101 0.744 0.234 1.176 0.4 0.438 0.167 0.854 0.335 1.249 0.504 0.404 0.164 0.738 0.316 1.004 0.454v0l-0.289 1.01c-0.482-0.18-1.026-0.377-1.631-0.593-0.6-0.207-1.172-0.388-1.716-0.544v0c-0.5-0.143-0.949-0.21-1.348-0.2-0.398 0.011-0.739 0.135-1.022 0.373-0.277 0.24-0.493 0.632-0.65 1.177v0l-0.162 0.567c-0.193 0.673-0.147 1.189 0.138 1.548 0.279 0.357 0.736 0.627 1.37 0.809v0l1.413 0.406c0.673 0.193 1.189 0.473 1.549 0.839 0.366 0.369 0.594 0.795 0.684 1.279 0.088 0.49 0.053 1.014-0.107 1.571v0l-0.27 0.942c-0.235 0.82-0.593 1.401-1.072 1.743-0.473 0.343-1.025 0.514-1.656 0.513-0.631-0.001-1.305-0.104-2.023-0.31zM92.127 156.984l-8.455 0.889-0.117-1.114 4.212-4.988c0.437-0.495 0.775-0.953 1.012-1.374 0.237-0.421 0.398-0.836 0.482-1.247 0.085-0.404 0.102-0.842 0.053-1.313v0c-0.043-0.411-0.158-0.771-0.345-1.08-0.186-0.302-0.484-0.526-0.895-0.67-0.411-0.145-0.984-0.178-1.72-0.101v0l-3.442 0.362-0.11-1.044c0.524-0.115 1.102-0.233 1.733-0.353 0.632-0.113 1.292-0.206 1.982-0.279v0c0.961-0.101 1.735-0.045 2.321 0.168 0.586 0.22 1.018 0.56 1.294 1.02 0.284 0.466 0.46 1.024 0.528 1.674v0c0.061 0.584 0.042 1.132-0.058 1.646-0.108 0.507-0.302 1.014-0.585 1.519-0.282 0.506-0.662 1.038-1.139 1.598v0l-3.478 4.127 6.595-0.693zM116.271 148.426v0c-0.672 0.356-1.298 0.59-1.881 0.702-0.582 0.112-1.141 0.054-1.677-0.176-0.536-0.229-1.084-0.678-1.642-1.348-0.559-0.67-1.159-1.612-1.803-2.825v0c-0.606-1.143-1.021-2.126-1.246-2.95-0.231-0.821-0.29-1.529-0.175-2.126 0.108-0.593 0.371-1.109 0.786-1.548 0.425-0.437 0.982-0.837 1.672-1.203v0c0.318-0.169 0.683-0.335 1.093-0.5 0.402-0.168 0.807-0.322 1.215-0.463 0.405-0.147 0.783-0.26 1.133-0.339v0l0.478 0.901c-0.186 0.061-0.447 0.161-0.781 0.3-0.328 0.136-0.703 0.297-1.125 0.483-0.413 0.189-0.829 0.394-1.247 0.616v0c-0.542 0.287-0.972 0.594-1.289 0.92-0.323 0.33-0.518 0.724-0.585 1.182-0.061 0.455 0.012 1.012 0.218 1.672 0.206 0.66 0.564 1.471 1.073 2.431v0c0.512 0.966 0.985 1.731 1.419 2.293 0.431 0.557 0.851 0.937 1.262 1.143 0.407 0.199 0.832 0.261 1.275 0.184 0.443-0.076 0.944-0.262 1.503-0.559v0c0.76-0.403 1.374-0.754 1.841-1.054 0.467-0.3 0.84-0.558 1.118-0.774v0l0.487 0.92c-0.269 0.233-0.575 0.474-0.918 0.724-0.34 0.256-0.697 0.501-1.07 0.736-0.379 0.239-0.757 0.458-1.134 0.658zM130.747 138.008v0c-0.615 0.543-1.203 0.96-1.765 1.251-0.566 0.295-1.148 0.413-1.743 0.352-0.596-0.061-1.254-0.343-1.974-0.846-0.715-0.507-1.529-1.278-2.443-2.313v0c-0.918-1.04-1.584-1.95-1.998-2.732-0.414-0.782-0.614-1.481-0.599-2.099 0.01-0.613 0.19-1.186 0.539-1.717 0.345-0.526 0.819-1.057 1.424-1.59v0c0.625-0.552 1.222-0.968 1.793-1.249 0.575-0.285 1.165-0.393 1.77-0.322 0.61 0.066 1.272 0.358 1.986 0.875 0.714 0.517 1.53 1.295 2.448 2.334v0c0.913 1.035 1.578 1.938 1.993 2.711 0.415 0.772 0.615 1.458 0.601 2.057-0.019 0.603-0.207 1.166-0.565 1.686-0.353 0.517-0.842 1.051-1.467 1.602zM129.939 137.094v0c0.485-0.428 0.855-0.84 1.111-1.235 0.251-0.391 0.36-0.816 0.328-1.276-0.023-0.46-0.213-0.986-0.568-1.58-0.36-0.599-0.908-1.315-1.645-2.15v0c-0.772-0.875-1.442-1.533-2.009-1.975-0.563-0.437-1.069-0.697-1.518-0.782-0.449-0.075-0.878-0.012-1.287 0.189-0.41 0.211-0.857 0.53-1.342 0.959v0c-0.45 0.397-0.802 0.784-1.057 1.16-0.255 0.386-0.376 0.808-0.362 1.267 0.018 0.464 0.204 1.007 0.557 1.629 0.363 0.623 0.93 1.371 1.703 2.245v0c0.737 0.835 1.378 1.47 1.922 1.906 0.54 0.43 1.034 0.688 1.482 0.772 0.448 0.094 0.883 0.038 1.307-0.167 0.429-0.21 0.888-0.53 1.378-0.962zM143.393 123.232v0c-0.46 0.679-0.925 1.23-1.396 1.652-0.474 0.428-1.008 0.687-1.6 0.777-0.592 0.09-1.3-0.018-2.122-0.325-0.819-0.313-1.8-0.856-2.944-1.629v0c-1.149-0.777-2.021-1.492-2.617-2.146-0.597-0.653-0.965-1.281-1.105-1.882-0.144-0.596-0.113-1.195 0.092-1.797 0.202-0.596 0.529-1.228 0.981-1.896v0c0.467-0.69 0.941-1.243 1.423-1.658 0.486-0.42 1.03-0.672 1.634-0.754 0.607-0.088 1.321 0.028 2.142 0.35 0.821 0.322 1.805 0.871 2.954 1.648v0c1.143 0.773 2.012 1.482 2.607 2.126 0.595 0.644 0.96 1.258 1.097 1.841 0.133 0.589 0.091 1.18-0.126 1.775-0.213 0.588-0.553 1.228-1.02 1.918zM142.382 122.548v0c0.362-0.536 0.618-1.027 0.768-1.473 0.145-0.441 0.145-0.88-0.003-1.318-0.138-0.439-0.452-0.902-0.944-1.387-0.498-0.49-1.208-1.047-2.13-1.671v0c-0.966-0.654-1.78-1.124-2.44-1.409-0.655-0.282-1.209-0.408-1.665-0.378-0.453 0.039-0.853 0.208-1.199 0.505-0.344 0.306-0.698 0.728-1.06 1.264v0c-0.336 0.497-0.581 0.96-0.733 1.387-0.151 0.437-0.162 0.876-0.034 1.317 0.134 0.445 0.45 0.924 0.947 1.438 0.507 0.512 1.244 1.095 2.21 1.749v0c0.922 0.624 1.701 1.079 2.338 1.364 0.631 0.282 1.173 0.407 1.628 0.377 0.457-0.021 0.865-0.184 1.224-0.488 0.363-0.31 0.727-0.736 1.093-1.277zM150.782 108.8l-0.478 1.306-11.956-4.374 0.477-1.306 5.41 1.979 0.766-2.094-4.211-5.257 0.499-1.362 4.651 5.801 7.326-1.484-0.505 1.381-6.595 1.347-0.766 2.094zM1.4 80.55c0-2.686 2.177-4.863 4.864-4.864 2.686 0 4.863 2.177 4.863 4.864 0 2.686-2.177 4.863-4.863 4.863-2.686 0-4.863-2.177-4.864-4.863zM146.663 80.55c0-2.686 2.177-4.863 4.863-4.864 2.686 0 4.863 2.177 4.864 4.864 0 2.686-2.177 4.863-4.864 4.863-2.686 0-4.863-2.177-4.863-4.863z" fill="#ffffff" data-fill-palette-color="accent"></path></svg></g></svg></g></svg></g></svg><rect width="395.52" height="107.81739185206288" fill="none" stroke="none" visibility="hidden"></rect></g></svg></g></svg>